<svg version="1.1" xmlns="http://www.w3.org/2000/svg" xmlns:xlink="http://www.w3.org/1999/xlink" x="0px" y="0px" viewBox="0 0 80 60">
<path d="M44.6,59.8c-0.6-0.2-1.2-0.3-1.9-0.4c-0.2,0-0.5-0.1-0.7-0.1c-0.4-0.1-0.9-0.2-1.3-0.3
	c-0.7-0.1-1.4-0.2-2.2-0.3c-0.7-0.1-1.3-0.2-2-0.3c-0.6-0.1-1.1-0.1-1.7-0.2c-0.7-0.1-1.4-0.2-2.1-0.4c-0.8-0.2-1.7-0.3-2.5-0.5
	c-1.2-0.2-2.3-0.5-3.5-0.7c-1.1-0.2-2.2-0.5-3.3-0.9c-1.5-0.6-3.1-1.3-4.5-2c-2-1-3.9-2.2-5.8-3.3c-1.1-0.7-2.4-1.2-3.6-1.6
	C8.2,48.4,7,48,5.8,47.6c-1-0.3-2-0.8-3-1.3c-0.8-0.4-1.5-1-2.2-1.6c-0.1-0.1-0.2-0.2-0.2-0.3c-0.2-0.5-0.2-1.1-0.2-1.7
	c0-0.4,0-0.8,0-1.3c0-0.8,0-1.5-0.1-2.3C0,37.7,0,36.3,0,34.9c0-0.1,0-0.2,0-0.3c0-2.5,0-5,0-7.5c0-0.9,0-1.9,0-2.8c0-1.5,0-3,0-4.5
	c0-1.7,0-3.4,0-5c0-1.1,0-2.2,0-3.3c0-0.2,0-0.4,0.1-0.6c0.4-0.9,1-1.6,1.8-2.1C2.6,8.3,3.2,8,3.9,7.7c0.7-0.3,1.4-0.5,2.1-0.8
	c0.5-0.2,0.9-0.4,1.4-0.6C7.9,6.1,8.4,5.9,9,5.8c0.8-0.2,1.6-0.5,2.4-0.7c1-0.3,2.1-0.6,3.1-0.8c1.3-0.2,2.6-0.5,3.9-0.7
	c1.5-0.3,3-0.5,4.4-0.8c2.1-0.4,4.2-0.9,6.3-1.6c0.8-0.2,1.5-0.5,2.3-0.6c0.9-0.2,1.9-0.4,2.8-0.4C35.9,0,37.6,0,39.3,0
	c0.8,0,1.5,0.1,2.3,0.1c0.6,0,1.2,0.1,1.8,0.1c0.8,0,1.6,0.1,2.4,0.1c0.9,0,1.9,0.1,2.8,0.1c0.7,0,1.3,0.1,2,0.1
	c0.6,0,1.3,0.1,1.9,0.2c0.6,0.1,1.3,0.2,1.9,0.3c1.4,0.3,2.7,0.5,4.1,0.8c2,0.4,4,0.9,6,1.5c0.9,0.3,1.7,0.5,2.5,0.8
	c1.3,0.4,2.6,0.8,3.9,1.1c1,0.2,1.9,0.4,2.9,0.7c0.3,0.1,0.6,0.2,1,0.3c0.7,0.2,1.3,0.3,2,0.4c0.5,0.1,1,0.2,1.5,0.3
	c0.3,0.1,0.6,0.2,0.8,0.4c0.5,0.3,0.8,0.7,0.8,1.3c0.1,1,0.2,2,0.1,3c0,0.9,0,1.8,0,2.7c0,1,0,2.1-0.1,3.1c0,0.5,0,1.1,0,1.6
	c0,0.7,0,1.4,0,2.2c0,1,0,2,0,3h0c0,1.6,0,3.1,0,4.7c0,1,0,1.9,0,2.9c0,0.8,0,1.5,0,2.3c0,1.6,0,3.3,0,4.9c0,1-0.5,2-1.4,2.5
	c-0.1,0.1-0.2,0.1-0.4,0.2c-0.8,0.4-1.5,0.9-2.1,1.4c-1.1,1-2.3,1.8-3.6,2.6c-1.2,0.7-2.3,1.3-3.6,1.9c-0.8,0.4-1.6,0.8-2.4,1.3
	c-1,0.6-2,1.3-2.9,2c-0.9,0.6-1.7,1.3-2.6,1.9c-0.7,0.5-1.4,0.8-2.1,1.2c-0.4,0.2-0.7,0.3-1.1,0.4c-1.1,0.4-2.1,0.9-3.1,1.5
	c-1.5,0.9-3.1,1.8-4.7,2.6c-0.4,0.2-0.9,0.4-1.3,0.6c-0.2,0.1-0.5,0.2-0.8,0.2c-0.2,0-0.4,0.1-0.6,0.2c-0.2,0.1-0.5,0.2-0.7,0.3
	c-0.3,0.1-0.6,0.2-0.9,0.2C45.2,60,44.9,59.9,44.6,59.8z M41.6,55.9c0.6,0.1,1.2,0.3,1.8,0.4c0.5,0.1,0.9,0.2,1.3,0.3
	c0.2,0.1,0.5,0.1,0.7,0c0.2-0.1,0.4-0.1,0.7-0.2c0.2-0.1,0.5-0.2,0.7-0.3c0.2-0.1,0.5-0.2,0.7-0.2c0.2,0,0.4-0.1,0.5-0.1
	c0.9-0.5,1.8-0.9,2.7-1.4c1.5-0.8,3-1.7,4.6-2.4c0.2-0.1,0.4-0.2,0.6-0.2c0.9-0.3,1.7-0.6,2.5-1c1.1-0.6,2.1-1.3,3-2.1
	c0.9-0.8,2-1.5,3.1-2.1c0.7-0.3,1.3-0.7,2-1c1-0.5,2-1,3-1.6c1.2-0.7,2.3-1.5,3.6-2.2c0.4-0.2,0.7-0.5,1-0.8
	c0.4-0.4,0.8-0.7,1.3-0.9c0.3-0.1,0.5-0.2,0.7-0.4c0.6-0.3,1-1,0.9-1.7c0-1,0-2,0-3c0-0.8,0-1.6,0-2.4c0-1.9,0-3.7,0-5.6
	c0-0.8,0-1.6,0-2.4h0c0-0.5,0-0.9,0-1.4c0-0.5,0-1,0-1.6c0-1.2,0.1-2.3,0.1-3.5c0-1.2,0-2.4,0-3.6c0-0.4,0-0.9,0-1.3
	c0-0.9,0-1.8-0.1-2.7c0-0.2-0.1-0.4-0.3-0.5c-0.1-0.1-0.2-0.1-0.3-0.1c-0.3-0.1-0.5-0.2-0.8-0.3c-0.3-0.1-0.5-0.1-0.8-0.1
	c-0.1,0-0.1,0-0.1,0c-0.4-0.1-0.8-0.2-1.1-0.3c-1-0.3-2.1-0.6-3.1-0.8c-1.5-0.3-3.1-0.7-4.6-1.2c-1.3-0.4-2.6-0.9-4-1.3
	c-1.1-0.4-2.2-0.6-3.4-0.8c-1.3-0.2-2.7-0.5-4-0.7c-1.4-0.3-2.8-0.5-4.2-0.6c-1.2-0.1-2.4-0.1-3.6-0.2c-0.9,0-1.7,0-2.6,0
	c-1,0-2,0-3,0c-0.1,0-0.2,0-0.2,0c-0.3-0.1-0.6-0.1-0.9-0.2c-0.4-0.1-0.8-0.2-1.2-0.1c-0.4,0-0.8,0-1.1,0c-1.2,0-2.3,0-3.5,0.2
	c-1,0.1-2,0.3-3,0.6c-1,0.3-2,0.6-2.9,0.9c-1.4,0.4-2.9,0.8-4.3,0.9C22.9,6,22,6.2,21.1,6.4c-0.6,0.1-1.3,0.3-1.9,0.4
	C18.1,7,17.1,7.1,16,7.3c-0.7,0.1-1.5,0.3-2.2,0.5c-0.4,0.1-0.7,0.2-1.1,0.4c-0.3,0.1-0.7,0.2-1,0.2c-0.7,0.1-1.3,0.2-1.9,0.5
	C9.5,9,9.2,9.1,8.9,9.2C8.8,9.3,8.6,9.4,8.5,9.4C8.1,9.6,7.7,9.8,7.3,9.9c-0.4,0.2-0.8,0.3-1.3,0.5c-0.5,0.2-1.1,0.4-1.6,0.7
	c-0.5,0.3-0.9,0.7-1.2,1.3C3.1,12.6,3,12.8,3,13.1c0,1.6,0,3.1,0,4.7C3,24.5,3,31.2,3,38c0,0.2,0,0.3,0,0.5c0.1,0.3,0.1,0.7,0.1,1.1
	c0,0.1,0,0.2,0.1,0.3c0,0.1,0,0.2,0,0.3c0,0.1,0,0.2,0,0.3c0,0.2,0,0.3,0,0.5c0,0.3,0,0.6,0,0.8c0,0.3,0.1,0.6,0.1,0.9
	c0,0.1,0.1,0.2,0.1,0.3c0.4,0.3,0.7,0.6,1.2,0.9c0.8,0.5,1.7,0.9,2.6,1.2c1,0.3,2,0.6,3,0.9c1.3,0.4,2.6,0.9,3.7,1.5
	c1.2,0.7,2.4,1.3,3.7,1.9c1.1,0.6,2.2,1.1,3.2,1.7c0.4,0.2,0.8,0.5,1.2,0.7c0.7,0.4,1.3,0.7,2,0.9c1.4,0.5,2.9,0.9,4.4,1.1
	c1.1,0.2,2.1,0.4,3.2,0.6c2,0.4,4,0.9,6.1,1.1c0.9,0.1,1.8,0.2,2.7,0.2h0.1C40.9,55.8,41.3,55.9,41.6,55.9L41.6,55.9z M43.6,49.7
	c-0.7-0.2-1.3-0.6-1.7-1.1c-0.1-0.1-0.1-0.2-0.2-0.3c-0.2-0.3-0.4-0.7-0.4-1.1c0-0.7-0.1-1.4-0.1-2.1c0-0.5,0-1,0-1.5
	c0-0.1,0-0.3-0.1-0.4C41.1,43.1,41,43,41,42.9c-0.1-0.3-0.1-0.6,0-0.9c0.1-0.7,0.1-1.5,0.1-2.2c0-0.7,0-1.4-0.1-2.1
	c0-0.4,0-0.8,0-1.1c0-0.6,0-1.2,0-1.9c0-0.8,0-1.6,0-2.4c0-0.4,0-0.9-0.1-1.3c0-0.2,0-0.5,0-0.7c0-0.2,0-0.3,0.1-0.5
	c0.1-0.2,0.1-0.3,0.1-0.5c0-2.8,0-5.6,0-8.4c0-0.2,0-0.3-0.1-0.5c0-0.1-0.1-0.1-0.1-0.2c0-0.2,0-0.3,0-0.5c0-0.6,0.1-1.2,0-1.8
	c0-0.7,0-1.3,0.1-2c0-0.3,0-0.6,0-0.9c0-0.2,0-0.4-0.1-0.5c0-0.1,0-0.2,0-0.3c0-0.3,0-0.7,0-1V7.8c0.2-0.1,0.4-0.2,0.6-0.1
	c0.3,0,0.6,0.1,0.9,0.3c0.2,0.1,0.4,0.2,0.6,0.1c0.2,0,0.4,0,0.6,0.1c0.1,0,0.2,0.1,0.4,0.1c0.3,0,0.5,0,0.8,0
	c0.2,0,0.4,0.1,0.6,0.2c0,0.1,0,0.1,0,0.2c0,0.4,0,0.8,0,1.2c0,0.1,0,0.3,0,0.4c0,4.6,0,9.2,0,13.8c0,0.2,0,0.4,0.1,0.6
	c0,0.1,0.1,0.3,0.1,0.4c0,0.3,0,0.5,0.1,0.8c0,0.1,0,0.3,0,0.4c0,6.1,0,12.2,0,18.3c0,0.2,0,0.3,0,0.5c0.3,0.1,0.7,0.1,1,0
	c0.3-0.1,0.7-0.3,0.9-0.5c0.2-0.2,0.4-0.3,0.6-0.5s0.4-0.3,0.6-0.5c0.3-0.2,0.6-0.4,1-0.5c0.5-0.2,1-0.6,1.2-1.1
	c0.2-0.3,0.4-0.7,0.6-1c0.3-0.4,0.4-0.9,0.4-1.4c0-0.1,0-0.2,0-0.3C52,39,52,38.7,52,38.4c0-0.3,0-0.6,0-0.8c0-0.3,0-0.6,0.1-0.9
	c0-0.1,0-0.3,0-0.4c0-2.6,0-5.2,0-7.8c0-1,0-2,0-3c0-2.1,0-4.2,0-6.3c0-0.1,0-0.3,0.1-0.4c0-0.1,0-0.2,0-0.3c0-0.8,0-1.7,0-2.5
	c0-1.8,0-3.6,0-5.4c0-0.1,0-0.3,0-0.4c0.9,0.1,1.8,0.3,2.7,0.6c0.3,0.1,0.7,0.2,1,0.2c0.1,0,0.3,0,0.4,0.1c0,0.4,0,0.7-0.1,1.1
	c0,0.1,0,0.1,0,0.2c0,0.7,0,1.4,0,2.2c0,2.3,0,4.7,0,7c0,1.4,0,2.9,0,4.3c0,1.8,0,3.6,0,5.3c0,1.9,0,3.7,0,5.6c0,0.9,0,1.8-0.1,2.7
	c0,0.6-0.1,1.2-0.2,1.7c-0.1,0.7-0.2,1.3-0.3,2c-0.1,0.5-0.2,1-0.4,1.5c-0.2,0.6-0.6,1.1-1.2,1.4c-0.5,0.3-0.9,0.6-1.4,0.9
	c-0.4,0.2-0.8,0.5-1.2,0.8c-1.4,1.1-3.1,1.8-4.8,2.2c-0.4,0.1-0.9,0.1-1.3,0.1C44.7,49.9,44.1,49.8,43.6,49.7L43.6,49.7z M36,48.7
	c-1-0.6-2.1-1.1-3.2-1.4c-1.3-0.5-2.5-0.9-3.8-1.4c-0.3-0.1-0.5-0.2-0.7-0.3c-0.5-0.2-1-0.4-1.5-0.5c-0.4-0.1-0.7-0.2-1-0.4
	c0-0.3,0-0.5,0-0.8c0-0.8,0-1.5,0-2.3c0-0.4,0-0.7,0-1.1c0-1.1,0-2.2,0.1-3.3c0-0.2,0-0.4,0-0.5c0-0.1,0-0.3,0-0.4
	c0-0.7,0.1-1.4,0.1-2.1c0-1.3,0-2.5,0-3.8c0-0.1,0-0.2,0-0.3c0-0.2,0-0.5-0.1-0.7c0-0.3-0.1-0.6-0.1-0.9c0-0.2,0-0.4,0-0.6
	c0-0.1,0-0.3-0.1-0.4c-0.1-0.2-0.1-0.4-0.1-0.7c0-0.8-0.1-1.5-0.1-2.3c0-0.4,0-0.8,0-1.2c0-1.3,0-2.5,0-3.8c0-0.8,0-1.6,0.1-2.4
	c0-0.1,0-0.2,0-0.3c0.2-0.7,0.2-1.3,0.2-2c0-0.5,0-1.1,0.1-1.6c0,0,0-0.1,0.1-0.2c0.2-0.1,0.4-0.2,0.6-0.3c0.4-0.2,0.8-0.3,1.3-0.4
	c0.1,0,0.1,0,0.2-0.1c0.3-0.2,0.6-0.3,0.9-0.4c0.2-0.1,0.4-0.2,0.6-0.3c0.1-0.1,0.3-0.2,0.4-0.2c0.7-0.3,1.5-0.6,2.2-0.8
	c0.7-0.3,1.4-0.5,2-0.8c0.1,0,0.3-0.1,0.4-0.2c0.4-0.3,0.9-0.4,1.4-0.5c0.2,0,0.5-0.1,0.6-0.2c0,0.1,0,0.1,0.1,0.2
	c0.1,1,0.2,1.9,0.3,2.9c0,0.4,0,0.7,0,1.1c0,0.1,0,0.2,0,0.2l-0.4,0.1c-0.3,0.1-0.7,0.1-1,0.2c-0.3,0.1-0.6,0.2-0.8,0.3
	c-0.2,0.1-0.5,0.2-0.7,0.3c-0.9,0.2-1.8,0.4-2.7,0.7c-0.3,0.1-0.6,0.2-0.9,0.4c-0.1,0.1-0.2,0.1-0.4,0.2c-0.1,0.1-0.3,0.2-0.4,0.3
	c-0.2,0.2-0.4,0.5-0.3,0.8c0,0.4,0,0.9,0,1.3c0,0.6,0,1.1,0,1.7c0,1.9,0,3.7,0,5.6c0,0.4,0.1,0.7,0.2,1c0.1,0.2,0.1,0.3,0.1,0.5
	c0,0.2,0,0.5-0.1,0.7c0,0.2,0,0.4,0,0.6c0,0,0.1,0,0.1,0c0.4,0,0.7,0,1.1-0.1c0.3,0,0.5-0.1,0.7-0.2c0.4-0.2,0.9-0.2,1.4-0.2
	c0.4,0,0.8,0,1.1-0.2c0.2-0.1,0.4-0.1,0.7-0.1c0.1,0,0.1,0,0.2,0c0,0.2,0,0.4,0,0.6c0,0.7,0,1.4-0.1,2.1c0,0.2,0,0.4,0,0.5
	c0,0.1,0,0.2,0,0.2c-0.1,0.2-0.1,0.5-0.1,0.7c0,0.1,0,0.3,0,0.4c-0.1,0.3-0.2,0.4-0.5,0.4c-0.1,0-0.3,0-0.4,0h-0.7
	c-0.2,0-0.4,0-0.6,0c-0.5,0-0.9,0-1.4,0.1c-0.2,0-0.5,0.1-0.8,0.1c-0.2,0-0.2,0.1-0.2,0.2c0,0.2,0,0.3,0,0.5c0.1,0.2,0.1,0.5,0,0.7
	c0,0.1,0,0.3,0,0.4c0,0.2,0.1,0.5,0,0.7c0,0.4,0,0.8,0.1,1.1c0,0.1,0.1,0.3,0.1,0.4c0,1,0,2,0,3.1c0,0.8,0,1.6,0,2.3
	c0,0.1,0,0.2,0,0.3c0,0,0.1,0,0.1,0.1c0.7,0.1,1.3,0.3,2,0.6c0.4,0.1,0.8,0.3,1.2,0.4c0.2,0.1,0.5,0.2,0.7,0.3
	c0.6,0.2,1.3,0.5,1.9,0.6c0.1,0,0.1,0,0.2,0.1c0,0.1,0,0.2,0,0.3c0,0.5,0,1.1,0,1.6c0,0.8,0,1.5,0,2.3C36.2,48.6,36.2,48.6,36,48.7
	C36.1,48.7,36,48.7,36,48.7L36,48.7z M9.5,43.2c0,0-0.1,0-0.1,0c-0.1-0.3-0.1-0.6-0.1-0.9c0-0.6,0-1.3,0-1.9c0-0.4,0-0.7-0.1-1.1
	c0-0.4-0.1-0.8-0.1-1.2c-0.1-1-0.2-2-0.2-3c0-1.3-0.1-2.5-0.1-3.8c0-1,0-2.1,0-3.1c0-0.2,0-0.4,0-0.6c0-0.2,0-0.4,0-0.6
	c0-0.2,0.1-0.4,0.2-0.5c0.4-0.4,0.3-0.5,0.4-1.1c0-0.1,0-0.2,0-0.3c0-0.6,0.1-1.1,0-1.7c0-0.8-0.1-1.7-0.1-2.5
	c0-0.6-0.1-1.2-0.1-1.9c0-0.2,0-0.5-0.1-0.7c0-0.3,0-0.5,0-0.8c0-0.4,0-0.8,0-1.2c0-0.1,0-0.3-0.1-0.4c-0.1-0.2,0-0.4,0.1-0.6
	c0.1-0.2,0.2-0.3,0.4-0.3c0.3-0.1,0.6-0.2,0.9-0.2c1.7-0.3,3.4-0.7,5.1-1.3c0.7-0.2,1.4-0.4,2.2-0.7c0.3-0.1,0.6-0.1,0.9,0.1
	c0.2,0.1,0.4,0.2,0.6,0.3c0.3,0.2,0.6,0.3,0.9,0.5c0.1,0,0.1,0.1,0.2,0.1c0.5,0.2,1,0.7,1.1,1.3c0.1,0.2,0.1,0.4,0.2,0.6
	c0.1,0.4,0.2,0.8,0.4,1.1c0.1,0.2,0.2,0.4,0.2,0.6c0.1,1,0.1,1.9,0.1,2.9c0,0.6,0,1.1,0,1.7c0,0.2,0,0.5-0.1,0.7
	c0,0.2,0,0.5,0.1,0.7c0,0.2-0.1,0.4,0,0.6c0,0.2,0,0.4,0,0.6c0,3.1,0,6.2,0,9.4c0,1.4,0,2.9,0,4.3c0,0.3,0,0.6,0.1,0.9
	c0,0.1,0,0.2,0,0.3c0,0.1-0.1,0.2-0.1,0.3c-0.5,0.5-1.1,1.1-1.7,1.6c-0.4,0.4-0.9,0.6-1.4,0.8c-0.8,0.3-1.6,0.5-2.4,0.5
	c-0.5,0-1,0.2-1.5,0.3c-0.3,0.1-0.6,0.2-1,0.2c-0.1,0-0.3,0-0.4,0c-0.5-0.1-1-0.1-1.5,0c-0.7,0.1-1.3,0.1-2,0.1
	C9.9,43.2,9.7,43.2,9.5,43.2L9.5,43.2z M17,18.3c-0.4,0.1-0.7,0.2-1.1,0.4c-0.5,0.2-1.1,0.4-1.6,0.5c-0.4,0.1-0.8,0.2-1.3,0.3
	c-0.2,0-0.3,0.1-0.4,0.2v0.4c0,3.1,0,6.2,0,9.2c0,0.1,0,0.2,0,0.3c0,0.1,0,0.1,0,0.2c0.1,0.2,0.1,0.3,0.1,0.5c0,0.4,0,0.9,0,1.3
	c0.1,1,0.1,2,0.1,3c0,1,0,1.9,0.1,2.9c0,0.1,0,0.3-0.1,0.4c-0.1,0.1-0.1,0.2,0,0.3c0,0.1,0.1,0.2,0.1,0.3c0.1,0,0.1,0,0.2-0.1
	c0.4-0.2,0.8-0.3,1.2-0.3c0.5-0.1,1-0.1,1.5-0.2c0.5-0.1,0.9-0.2,1.4-0.4c0.1-0.1,0.2-0.1,0.3-0.2c0.3-0.3,0.5-0.6,0.8-0.9
	c0.1-0.1,0.1-0.2,0.1-0.3c0-0.4,0-0.7,0-1.1c0-0.7,0-1.3,0-2c0-0.2,0-0.3-0.1-0.5c0-0.3-0.1-0.5-0.1-0.8c0-0.4,0-0.8,0-1.2
	c0-3.1,0-6.2,0-9.3c0-0.5,0-1.1,0-1.6c0-0.3,0-0.6-0.1-0.9c0-0.1,0-0.2-0.1-0.2c-0.2-0.2-0.5-0.3-0.7-0.3
	C17.2,18.3,17.1,18.3,17,18.3L17,18.3z M61.3,40.1c-0.5-0.2-0.9-0.5-1.3-0.7c-0.2-0.1-0.4-0.3-0.5-0.5c-0.2-0.2-0.3-0.4-0.5-0.6
	c-0.1-0.1-0.1-0.2-0.1-0.2c0,0,0-0.1,0-0.2c0.1-0.9,0-1.8,0-2.7c0-0.5,0-0.9,0-1.4c0-0.2,0-0.3,0-0.5c0-0.1,0-0.2,0.1-0.3
	c0-0.1,0.2-0.2,0.3-0.2c0.1,0,0.2,0,0.2,0c0.4,0.1,0.8,0.1,1.3,0c0.2,0,0.4,0,0.6,0c0,0,0.1,0,0.1,0c0,0.3,0.1,0.6,0.1,0.9
	c0,0.3,0.2,0.6,0.4,0.8c0.2,0.1,0.3,0.3,0.5,0.5c0.2,0.2,0.6,0.4,0.9,0.3c0.4,0,0.8-0.1,1.2-0.3c0.5-0.2,1.1-0.4,1.6-0.7
	c0.8-0.4,0.8-0.4,1.1-1.3c0-0.1,0.1-0.2,0.1-0.4c0-0.4,0.1-0.9,0.2-1.3c0-0.1,0-0.2,0-0.3c0-0.9,0.1-1.7,0.2-2.6
	c0-0.4,0.1-0.8,0.1-1.2c0-0.4-0.1-0.6-0.5-0.7c-0.3-0.1-0.7-0.2-1.1-0.2c-0.2,0-0.5,0-0.7,0c-0.7,0-1.4-0.1-2.1-0.1
	c-0.2,0-0.4,0-0.6,0c-0.5,0-1.1-0.3-1.4-0.7c-0.3-0.4-0.5-0.8-0.6-1.2c-0.1-0.3-0.1-0.6-0.2-0.9c-0.1-0.7-0.2-1.4-0.2-2.1
	c0-1,0-1.9,0-2.9c0-0.7,0-1.3,0-2c0-0.7,0.1-1.4,0.3-2.1c0.1-0.3,0.2-0.5,0.3-0.7c0.2-0.4,0.5-0.7,0.9-0.8c0.4-0.1,0.9-0.2,1.4-0.2
	c1.1,0,2.3,0.2,3.4,0.4c0.6,0.1,1.1,0.2,1.7,0.3c0.6,0.1,1.1,0.2,1.6,0.3c0.2,0,0.5,0.1,0.6,0.3c0.1,0.8,0,1.6,0.1,2.4
	c0,0.1,0,0.2,0,0.3c-0.2,0-0.4,0-0.6,0c-0.5,0-1.1-0.1-1.6-0.2c-0.5-0.1-0.9-0.1-1.4-0.1c-0.3,0-0.7-0.1-1-0.1c-0.2,0-0.4,0-0.5,0
	c-0.2,0-0.5,0-0.6,0.2c-0.1,0.1-0.2,0.2-0.3,0.3c-0.1,0.1-0.2,0.3-0.2,0.5c0,0.7,0,1.5-0.1,2.2c0,0.4-0.1,0.8-0.1,1.2
	c0,0.2,0,0.4,0,0.5c0,0.5,0.4,1,0.9,1.1c0.2,0.1,0.4,0.1,0.6,0.1c0.7,0,1.3,0.1,2,0.3c0.8,0.2,1.7,0.5,2.5,0.7
	c0.5,0.1,0.9,0.4,1.1,0.9c0.1,0.2,0.2,0.4,0.2,0.6c0,0.1,0,0.3,0,0.4c-0.1,0.7-0.1,1.4-0.2,2.1c0,0.5-0.1,1.1-0.1,1.6
	c-0.1,0.7-0.2,1.4-0.3,2.1c-0.2,1.4-0.4,2.9-0.5,4.4c0,0.3-0.1,0.7-0.1,1c0,0.3-0.2,0.5-0.4,0.6c-0.2,0.1-0.4,0.2-0.5,0.3
	c-0.2,0.1-0.3,0.2-0.5,0.2c-0.3,0.1-0.6,0.3-0.9,0.6c-0.1,0.1-0.1,0.1-0.2,0.2c-0.2,0.2-0.4,0.2-0.6,0.2c-0.2,0-0.4,0-0.5,0.1
	c-0.2,0.1-0.4,0.2-0.5,0.3c-0.3,0.2-0.6,0.3-1,0.4c-0.6,0.2-1.2,0.5-1.8,0.7c-0.3,0.1-0.6,0.2-0.8,0.3c-0.2,0.1-0.4,0.1-0.6,0.1
	C61.9,40.3,61.6,40.3,61.3,40.1L61.3,40.1z M73.4,36.1c-0.4,0-0.7-0.2-0.9-0.5c-0.4-0.5-0.6-1-0.6-1.6c-0.1-0.6,0-1.3,0.4-1.8
	c0.1-0.1,0.2-0.2,0.3-0.3c0.3-0.2,0.6-0.3,0.9-0.3c0.2,0,0.4-0.1,0.6-0.1c0.5-0.1,1.1,0.1,1.4,0.5c0.1,0.2,0.2,0.3,0.3,0.5
	c0.2,0.4,0.3,0.8,0.3,1.2c0,0.7-0.2,1.4-0.6,2c-0.1,0.2-0.2,0.3-0.4,0.3c-0.2,0-0.4,0.1-0.6,0.1c-0.2,0-0.3,0-0.5,0
	C73.8,36.1,73.6,36.1,73.4,36.1L73.4,36.1z M74,35.6c0.3,0,0.6-0.1,0.9-0.1c0.1,0,0.2-0.1,0.3-0.2c0.3-0.5,0.4-1.1,0.4-1.6
	c0-0.2,0-0.3-0.1-0.5c-0.1-0.3-0.3-0.6-0.5-0.9c-0.2-0.3-0.5-0.4-0.9-0.3c-0.2,0-0.4,0.1-0.6,0.1c-0.2,0-0.4,0.1-0.6,0.2
	c-0.1,0-0.1,0.1-0.2,0.2c-0.3,0.4-0.4,0.9-0.3,1.3c0,0.2,0.1,0.3,0.1,0.5c0,0.2,0.1,0.5,0.3,0.7c0.1,0.1,0.1,0.1,0.1,0.2
	c0.1,0.2,0.4,0.3,0.6,0.3C73.7,35.6,73.9,35.6,74,35.6L74,35.6z M74.8,35c-0.2,0-0.4-0.2-0.4-0.4c0-0.1-0.1-0.2-0.1-0.3
	c0-0.1-0.1-0.2-0.2-0.1c-0.1,0-0.2,0-0.3,0.1c-0.1,0.1-0.1,0.3-0.1,0.4c0,0.1,0,0.2,0,0.4c-0.2,0.1-0.3,0.1-0.5,0
	c-0.1-0.1-0.1-0.2-0.1-0.4c0-0.5,0-0.9,0-1.4c0-0.1,0-0.2-0.1-0.3c-0.1-0.1-0.1-0.3,0-0.4c0.4-0.1,0.9,0,1.3,0.1
	c0.3,0,0.5,0.3,0.4,0.6c0,0.2,0,0.4-0.2,0.5c0.1,0.2,0.1,0.3,0.2,0.5c0,0.2,0.1,0.4,0.3,0.5c0,0,0,0,0,0.1c0,0.2-0.1,0.3-0.2,0.4
	C74.9,35.1,74.9,35.1,74.8,35L74.8,35z M73.7,32.9c0,0.2,0,0.4,0,0.5c0.1,0.1,0.3,0,0.4,0c0.1-0.1,0.1-0.2,0.1-0.3
	c0-0.1-0.1-0.3-0.2-0.3c0,0,0,0,0,0c0,0-0.1,0-0.1,0C73.8,32.9,73.8,32.9,73.7,32.9L73.7,32.9z"/>
</svg>
